<mxfile host="app.diagrams.net" modified="2023-07-21T11:09:11.256Z" agent="Mozilla/5.0 (Windows NT 10.0; Win64; x64) AppleWebKit/537.36 (KHTML, like Gecko) Chrome/113.0.0.0 Safari/537.36 OPR/99.0.0.0 (Edition std-1)" etag="XyByRc2E4lvyJYafQWvb" version="21.6.5" type="device">
  <diagram name="Seite-1" id="FspkBZJ5LrvNhXL0suG6">
    <mxGraphModel dx="1105" dy="600" grid="1" gridSize="10" guides="1" tooltips="1" connect="1" arrows="1" fold="1" page="1" pageScale="1" pageWidth="827" pageHeight="1169" math="0" shadow="0">
      <root>
        <mxCell id="0" />
        <mxCell id="1" parent="0" />
        <mxCell id="0UYNpmuhVcVU08-RjVgE-1" value="f" style="rounded=1;whiteSpace=wrap;html=1;fillColor=#fff2cc;strokeColor=#d6b656;" parent="1" vertex="1">
          <mxGeometry x="160" y="130" width="30" height="120" as="geometry" />
        </mxCell>
        <mxCell id="0UYNpmuhVcVU08-RjVgE-5" value="" style="group;" parent="1" vertex="1" connectable="0">
          <mxGeometry x="120" y="160" width="20" height="20" as="geometry" />
        </mxCell>
        <mxCell id="0UYNpmuhVcVU08-RjVgE-2" value="" style="ellipse;whiteSpace=wrap;html=1;aspect=fixed;fillColor=#f8cecc;strokeColor=#b85450;" parent="0UYNpmuhVcVU08-RjVgE-5" vertex="1">
          <mxGeometry width="20" height="20" as="geometry" />
        </mxCell>
        <mxCell id="0UYNpmuhVcVU08-RjVgE-3" value="" style="endArrow=none;html=1;rounded=0;entryX=0.5;entryY=0;entryDx=0;entryDy=0;exitX=0.5;exitY=1;exitDx=0;exitDy=0;fillColor=#f8cecc;strokeColor=#b85450;" parent="0UYNpmuhVcVU08-RjVgE-5" source="0UYNpmuhVcVU08-RjVgE-2" target="0UYNpmuhVcVU08-RjVgE-2" edge="1">
          <mxGeometry width="50" height="50" relative="1" as="geometry">
            <mxPoint x="-15" y="90" as="sourcePoint" />
            <mxPoint x="35" y="40" as="targetPoint" />
          </mxGeometry>
        </mxCell>
        <mxCell id="0UYNpmuhVcVU08-RjVgE-4" value="" style="endArrow=none;html=1;rounded=0;entryX=0;entryY=0.5;entryDx=0;entryDy=0;exitX=1;exitY=0.5;exitDx=0;exitDy=0;fillColor=#f8cecc;strokeColor=#b85450;" parent="0UYNpmuhVcVU08-RjVgE-5" source="0UYNpmuhVcVU08-RjVgE-2" target="0UYNpmuhVcVU08-RjVgE-2" edge="1">
          <mxGeometry width="50" height="50" relative="1" as="geometry">
            <mxPoint x="-20" y="90" as="sourcePoint" />
            <mxPoint x="30" y="40" as="targetPoint" />
          </mxGeometry>
        </mxCell>
        <mxCell id="0UYNpmuhVcVU08-RjVgE-7" value="" style="endArrow=classic;html=1;rounded=0;entryX=0;entryY=0.25;entryDx=0;entryDy=0;exitX=1;exitY=0.5;exitDx=0;exitDy=0;" parent="1" source="0UYNpmuhVcVU08-RjVgE-2" edge="1">
          <mxGeometry width="50" height="50" relative="1" as="geometry">
            <mxPoint x="70" y="240" as="sourcePoint" />
            <mxPoint x="160" y="170" as="targetPoint" />
          </mxGeometry>
        </mxCell>
        <mxCell id="0UYNpmuhVcVU08-RjVgE-24" value="0&lt;span style=&quot;font-size: 10px;&quot;&gt;&lt;sup&gt;r&lt;/sup&gt;&lt;/span&gt;" style="rounded=0;whiteSpace=wrap;html=1;fillColor=#d5e8d4;strokeColor=#82b366;" parent="1" vertex="1">
          <mxGeometry x="80" y="130" width="20" height="80" as="geometry" />
        </mxCell>
        <mxCell id="0UYNpmuhVcVU08-RjVgE-25" value="0&lt;sup&gt;c&lt;/sup&gt;" style="rounded=0;whiteSpace=wrap;html=1;fillColor=#d5e8d4;strokeColor=#82b366;" parent="1" vertex="1">
          <mxGeometry x="80" y="210" width="20" height="40" as="geometry" />
        </mxCell>
        <mxCell id="0UYNpmuhVcVU08-RjVgE-28" value="f" style="rounded=1;whiteSpace=wrap;html=1;fillColor=#fff2cc;strokeColor=#d6b656;" parent="1" vertex="1">
          <mxGeometry x="250" y="130" width="30" height="120" as="geometry" />
        </mxCell>
        <mxCell id="0UYNpmuhVcVU08-RjVgE-29" value="f" style="rounded=1;whiteSpace=wrap;html=1;fillColor=#fff2cc;strokeColor=#d6b656;" parent="1" vertex="1">
          <mxGeometry x="430" y="130" width="30" height="120" as="geometry" />
        </mxCell>
        <mxCell id="0UYNpmuhVcVU08-RjVgE-40" value="" style="group" parent="1" vertex="1" connectable="0">
          <mxGeometry x="190" y="120" width="60" height="60" as="geometry" />
        </mxCell>
        <mxCell id="0UYNpmuhVcVU08-RjVgE-30" value="" style="group" parent="0UYNpmuhVcVU08-RjVgE-40" vertex="1" connectable="0">
          <mxGeometry x="20" width="20" height="60" as="geometry" />
        </mxCell>
        <mxCell id="0UYNpmuhVcVU08-RjVgE-31" value="" style="group" parent="0UYNpmuhVcVU08-RjVgE-30" vertex="1" connectable="0">
          <mxGeometry y="40" width="20" height="20" as="geometry" />
        </mxCell>
        <mxCell id="0UYNpmuhVcVU08-RjVgE-32" value="" style="ellipse;whiteSpace=wrap;html=1;aspect=fixed;fillColor=#f8cecc;strokeColor=#b85450;" parent="0UYNpmuhVcVU08-RjVgE-31" vertex="1">
          <mxGeometry width="20" height="20" as="geometry" />
        </mxCell>
        <mxCell id="0UYNpmuhVcVU08-RjVgE-33" value="" style="endArrow=none;html=1;rounded=0;entryX=0.5;entryY=0;entryDx=0;entryDy=0;exitX=0.5;exitY=1;exitDx=0;exitDy=0;fillColor=#f8cecc;strokeColor=#b85450;" parent="0UYNpmuhVcVU08-RjVgE-31" source="0UYNpmuhVcVU08-RjVgE-32" target="0UYNpmuhVcVU08-RjVgE-32" edge="1">
          <mxGeometry width="50" height="50" relative="1" as="geometry">
            <mxPoint x="-15" y="90" as="sourcePoint" />
            <mxPoint x="35" y="40" as="targetPoint" />
          </mxGeometry>
        </mxCell>
        <mxCell id="0UYNpmuhVcVU08-RjVgE-34" value="" style="endArrow=none;html=1;rounded=0;entryX=0;entryY=0.5;entryDx=0;entryDy=0;exitX=1;exitY=0.5;exitDx=0;exitDy=0;fillColor=#f8cecc;strokeColor=#b85450;" parent="0UYNpmuhVcVU08-RjVgE-31" source="0UYNpmuhVcVU08-RjVgE-32" target="0UYNpmuhVcVU08-RjVgE-32" edge="1">
          <mxGeometry width="50" height="50" relative="1" as="geometry">
            <mxPoint x="-20" y="90" as="sourcePoint" />
            <mxPoint x="30" y="40" as="targetPoint" />
          </mxGeometry>
        </mxCell>
        <mxCell id="0UYNpmuhVcVU08-RjVgE-86" value="" style="endArrow=classic;html=1;rounded=0;" parent="0UYNpmuhVcVU08-RjVgE-30" edge="1">
          <mxGeometry width="50" height="50" relative="1" as="geometry">
            <mxPoint x="10.069999999999993" as="sourcePoint" />
            <mxPoint x="9.829999999999984" y="40" as="targetPoint" />
          </mxGeometry>
        </mxCell>
        <mxCell id="0UYNpmuhVcVU08-RjVgE-87" value="M&lt;sub&gt;1&lt;/sub&gt;" style="edgeLabel;html=1;align=center;verticalAlign=middle;resizable=0;points=[];" parent="0UYNpmuhVcVU08-RjVgE-86" vertex="1" connectable="0">
          <mxGeometry x="0.1905" y="-1" relative="1" as="geometry">
            <mxPoint x="1" y="-4" as="offset" />
          </mxGeometry>
        </mxCell>
        <mxCell id="0UYNpmuhVcVU08-RjVgE-39" value="" style="endArrow=classic;html=1;rounded=0;" parent="0UYNpmuhVcVU08-RjVgE-40" edge="1">
          <mxGeometry width="50" height="50" relative="1" as="geometry">
            <mxPoint x="40" y="50" as="sourcePoint" />
            <mxPoint x="60" y="50" as="targetPoint" />
          </mxGeometry>
        </mxCell>
        <mxCell id="0UYNpmuhVcVU08-RjVgE-74" value="" style="endArrow=classic;html=1;rounded=0;startArrow=dash;startFill=0;endFill=1;" parent="0UYNpmuhVcVU08-RjVgE-40" edge="1">
          <mxGeometry width="50" height="50" relative="1" as="geometry">
            <mxPoint y="50" as="sourcePoint" />
            <mxPoint x="20" y="50" as="targetPoint" />
          </mxGeometry>
        </mxCell>
        <mxCell id="0UYNpmuhVcVU08-RjVgE-75" value="r" style="edgeLabel;html=1;align=center;verticalAlign=middle;resizable=0;points=[];labelBackgroundColor=none;" parent="0UYNpmuhVcVU08-RjVgE-74" vertex="1" connectable="0">
          <mxGeometry x="-0.64" y="1" relative="1" as="geometry">
            <mxPoint x="-1" y="-9" as="offset" />
          </mxGeometry>
        </mxCell>
        <mxCell id="0UYNpmuhVcVU08-RjVgE-41" value="" style="group" parent="1" vertex="1" connectable="0">
          <mxGeometry x="370" y="120" width="60" height="60" as="geometry" />
        </mxCell>
        <mxCell id="0UYNpmuhVcVU08-RjVgE-42" value="" style="group" parent="0UYNpmuhVcVU08-RjVgE-41" vertex="1" connectable="0">
          <mxGeometry x="20" width="20" height="60" as="geometry" />
        </mxCell>
        <mxCell id="0UYNpmuhVcVU08-RjVgE-43" value="" style="group;" parent="0UYNpmuhVcVU08-RjVgE-42" vertex="1" connectable="0">
          <mxGeometry y="40" width="20" height="20" as="geometry" />
        </mxCell>
        <mxCell id="0UYNpmuhVcVU08-RjVgE-44" value="" style="ellipse;whiteSpace=wrap;html=1;aspect=fixed;fillColor=#f8cecc;strokeColor=#b85450;" parent="0UYNpmuhVcVU08-RjVgE-43" vertex="1">
          <mxGeometry width="20" height="20" as="geometry" />
        </mxCell>
        <mxCell id="0UYNpmuhVcVU08-RjVgE-45" value="" style="endArrow=none;html=1;rounded=0;entryX=0.5;entryY=0;entryDx=0;entryDy=0;exitX=0.5;exitY=1;exitDx=0;exitDy=0;fillColor=#f8cecc;strokeColor=#b85450;" parent="0UYNpmuhVcVU08-RjVgE-43" source="0UYNpmuhVcVU08-RjVgE-44" target="0UYNpmuhVcVU08-RjVgE-44" edge="1">
          <mxGeometry width="50" height="50" relative="1" as="geometry">
            <mxPoint x="-15" y="90" as="sourcePoint" />
            <mxPoint x="35" y="40" as="targetPoint" />
          </mxGeometry>
        </mxCell>
        <mxCell id="0UYNpmuhVcVU08-RjVgE-46" value="" style="endArrow=none;html=1;rounded=0;entryX=0;entryY=0.5;entryDx=0;entryDy=0;exitX=1;exitY=0.5;exitDx=0;exitDy=0;fillColor=#f8cecc;strokeColor=#b85450;" parent="0UYNpmuhVcVU08-RjVgE-43" source="0UYNpmuhVcVU08-RjVgE-44" target="0UYNpmuhVcVU08-RjVgE-44" edge="1">
          <mxGeometry width="50" height="50" relative="1" as="geometry">
            <mxPoint x="-20" y="90" as="sourcePoint" />
            <mxPoint x="30" y="40" as="targetPoint" />
          </mxGeometry>
        </mxCell>
        <mxCell id="0UYNpmuhVcVU08-RjVgE-88" value="" style="endArrow=classic;html=1;rounded=0;" parent="0UYNpmuhVcVU08-RjVgE-42" edge="1">
          <mxGeometry width="50" height="50" relative="1" as="geometry">
            <mxPoint x="10.069999999999993" as="sourcePoint" />
            <mxPoint x="9.829999999999984" y="40" as="targetPoint" />
          </mxGeometry>
        </mxCell>
        <mxCell id="0UYNpmuhVcVU08-RjVgE-89" value="M&lt;sub&gt;m-1&lt;/sub&gt;" style="edgeLabel;html=1;align=center;verticalAlign=middle;resizable=0;points=[];" parent="0UYNpmuhVcVU08-RjVgE-88" vertex="1" connectable="0">
          <mxGeometry x="0.1905" y="-1" relative="1" as="geometry">
            <mxPoint x="1" y="-4" as="offset" />
          </mxGeometry>
        </mxCell>
        <mxCell id="0UYNpmuhVcVU08-RjVgE-51" value="" style="endArrow=classic;html=1;rounded=0;" parent="0UYNpmuhVcVU08-RjVgE-41" edge="1">
          <mxGeometry width="50" height="50" relative="1" as="geometry">
            <mxPoint x="40" y="50" as="sourcePoint" />
            <mxPoint x="60" y="50" as="targetPoint" />
          </mxGeometry>
        </mxCell>
        <mxCell id="0UYNpmuhVcVU08-RjVgE-76" value="" style="endArrow=classic;html=1;rounded=0;startArrow=dash;startFill=0;endFill=1;" parent="0UYNpmuhVcVU08-RjVgE-41" edge="1">
          <mxGeometry width="50" height="50" relative="1" as="geometry">
            <mxPoint y="50" as="sourcePoint" />
            <mxPoint x="20" y="50" as="targetPoint" />
          </mxGeometry>
        </mxCell>
        <mxCell id="0UYNpmuhVcVU08-RjVgE-77" value="r" style="edgeLabel;html=1;align=center;verticalAlign=middle;resizable=0;points=[];labelBackgroundColor=none;" parent="0UYNpmuhVcVU08-RjVgE-76" vertex="1" connectable="0">
          <mxGeometry x="-0.64" y="1" relative="1" as="geometry">
            <mxPoint x="-1" y="-9" as="offset" />
          </mxGeometry>
        </mxCell>
        <mxCell id="0UYNpmuhVcVU08-RjVgE-52" value="" style="endArrow=classic;html=1;rounded=0;startArrow=dash;startFill=0;endFill=1;" parent="1" edge="1">
          <mxGeometry width="50" height="50" relative="1" as="geometry">
            <mxPoint x="210" y="229.8" as="sourcePoint" />
            <mxPoint x="250" y="229.8" as="targetPoint" />
          </mxGeometry>
        </mxCell>
        <mxCell id="0UYNpmuhVcVU08-RjVgE-53" value="c" style="edgeLabel;html=1;align=center;verticalAlign=middle;resizable=0;points=[];labelBackgroundColor=none;" parent="0UYNpmuhVcVU08-RjVgE-52" vertex="1" connectable="0">
          <mxGeometry x="-0.64" y="1" relative="1" as="geometry">
            <mxPoint x="-1" y="-9" as="offset" />
          </mxGeometry>
        </mxCell>
        <mxCell id="0UYNpmuhVcVU08-RjVgE-54" value="" style="endArrow=none;html=1;rounded=0;" parent="1" edge="1">
          <mxGeometry width="50" height="50" relative="1" as="geometry">
            <mxPoint x="190" y="229.8" as="sourcePoint" />
            <mxPoint x="210" y="229.8" as="targetPoint" />
          </mxGeometry>
        </mxCell>
        <mxCell id="0UYNpmuhVcVU08-RjVgE-55" value="" style="endArrow=classic;html=1;rounded=0;startArrow=dash;startFill=0;endFill=1;" parent="1" edge="1">
          <mxGeometry width="50" height="50" relative="1" as="geometry">
            <mxPoint x="120" y="230" as="sourcePoint" />
            <mxPoint x="160" y="230" as="targetPoint" />
          </mxGeometry>
        </mxCell>
        <mxCell id="0UYNpmuhVcVU08-RjVgE-56" value="c" style="edgeLabel;html=1;align=center;verticalAlign=middle;resizable=0;points=[];labelBackgroundColor=none;" parent="0UYNpmuhVcVU08-RjVgE-55" vertex="1" connectable="0">
          <mxGeometry x="-0.64" y="1" relative="1" as="geometry">
            <mxPoint x="-1" y="-9" as="offset" />
          </mxGeometry>
        </mxCell>
        <mxCell id="0UYNpmuhVcVU08-RjVgE-57" value="" style="endArrow=none;html=1;rounded=0;" parent="1" edge="1">
          <mxGeometry width="50" height="50" relative="1" as="geometry">
            <mxPoint x="100" y="230" as="sourcePoint" />
            <mxPoint x="120" y="230" as="targetPoint" />
          </mxGeometry>
        </mxCell>
        <mxCell id="0UYNpmuhVcVU08-RjVgE-58" value="" style="endArrow=classic;html=1;rounded=0;startArrow=dash;startFill=0;endFill=1;" parent="1" edge="1">
          <mxGeometry width="50" height="50" relative="1" as="geometry">
            <mxPoint x="390" y="229.86000000000007" as="sourcePoint" />
            <mxPoint x="430" y="229.86000000000007" as="targetPoint" />
          </mxGeometry>
        </mxCell>
        <mxCell id="0UYNpmuhVcVU08-RjVgE-59" value="c" style="edgeLabel;html=1;align=center;verticalAlign=middle;resizable=0;points=[];labelBackgroundColor=none;" parent="0UYNpmuhVcVU08-RjVgE-58" vertex="1" connectable="0">
          <mxGeometry x="-0.64" y="1" relative="1" as="geometry">
            <mxPoint x="-1" y="-9" as="offset" />
          </mxGeometry>
        </mxCell>
        <mxCell id="0UYNpmuhVcVU08-RjVgE-60" value="" style="endArrow=none;html=1;rounded=0;" parent="1" edge="1">
          <mxGeometry width="50" height="50" relative="1" as="geometry">
            <mxPoint x="370" y="229.86000000000007" as="sourcePoint" />
            <mxPoint x="390" y="229.86000000000007" as="targetPoint" />
          </mxGeometry>
        </mxCell>
        <mxCell id="0UYNpmuhVcVU08-RjVgE-61" value="f" style="rounded=1;whiteSpace=wrap;html=1;fillColor=#fff2cc;strokeColor=#d6b656;" parent="1" vertex="1">
          <mxGeometry x="340" y="130" width="30" height="120" as="geometry" />
        </mxCell>
        <mxCell id="0UYNpmuhVcVU08-RjVgE-62" value="" style="endArrow=none;html=1;rounded=0;" parent="1" edge="1">
          <mxGeometry width="50" height="50" relative="1" as="geometry">
            <mxPoint x="280" y="170" as="sourcePoint" />
            <mxPoint x="290" y="170" as="targetPoint" />
          </mxGeometry>
        </mxCell>
        <mxCell id="0UYNpmuhVcVU08-RjVgE-63" value="" style="endArrow=none;html=1;rounded=0;" parent="1" edge="1">
          <mxGeometry width="50" height="50" relative="1" as="geometry">
            <mxPoint x="280" y="229.93" as="sourcePoint" />
            <mxPoint x="290" y="229.93" as="targetPoint" />
          </mxGeometry>
        </mxCell>
        <mxCell id="0UYNpmuhVcVU08-RjVgE-64" value="" style="endArrow=classic;html=1;rounded=0;endFill=1;" parent="1" edge="1">
          <mxGeometry width="50" height="50" relative="1" as="geometry">
            <mxPoint x="330" y="169.9" as="sourcePoint" />
            <mxPoint x="340" y="169.9" as="targetPoint" />
          </mxGeometry>
        </mxCell>
        <mxCell id="0UYNpmuhVcVU08-RjVgE-65" value="" style="endArrow=classic;html=1;rounded=0;endFill=1;" parent="1" edge="1">
          <mxGeometry width="50" height="50" relative="1" as="geometry">
            <mxPoint x="330" y="229.9" as="sourcePoint" />
            <mxPoint x="340" y="229.9" as="targetPoint" />
          </mxGeometry>
        </mxCell>
        <mxCell id="0UYNpmuhVcVU08-RjVgE-72" value="" style="endArrow=classic;html=1;rounded=0;startArrow=dash;startFill=0;endFill=1;" parent="1" edge="1">
          <mxGeometry width="50" height="50" relative="1" as="geometry">
            <mxPoint x="100" y="169.83" as="sourcePoint" />
            <mxPoint x="120" y="169.83" as="targetPoint" />
          </mxGeometry>
        </mxCell>
        <mxCell id="0UYNpmuhVcVU08-RjVgE-73" value="r" style="edgeLabel;html=1;align=center;verticalAlign=middle;resizable=0;points=[];labelBackgroundColor=none;" parent="0UYNpmuhVcVU08-RjVgE-72" vertex="1" connectable="0">
          <mxGeometry x="-0.64" y="1" relative="1" as="geometry">
            <mxPoint x="-1" y="-9" as="offset" />
          </mxGeometry>
        </mxCell>
        <mxCell id="0UYNpmuhVcVU08-RjVgE-82" value="pad" style="rounded=1;whiteSpace=wrap;html=1;fillColor=#dae8fc;strokeColor=#6c8ebf;" parent="1" vertex="1">
          <mxGeometry x="110" y="100" width="310" height="20" as="geometry" />
        </mxCell>
        <mxCell id="0UYNpmuhVcVU08-RjVgE-83" value="" style="endArrow=classic;html=1;rounded=0;" parent="1" edge="1">
          <mxGeometry width="50" height="50" relative="1" as="geometry">
            <mxPoint x="130" y="120" as="sourcePoint" />
            <mxPoint x="129.76" y="160" as="targetPoint" />
          </mxGeometry>
        </mxCell>
        <mxCell id="0UYNpmuhVcVU08-RjVgE-84" value="M&lt;sub&gt;0&lt;/sub&gt;" style="edgeLabel;html=1;align=center;verticalAlign=middle;resizable=0;points=[];" parent="0UYNpmuhVcVU08-RjVgE-83" vertex="1" connectable="0">
          <mxGeometry x="0.1905" y="-1" relative="1" as="geometry">
            <mxPoint x="1" y="-4" as="offset" />
          </mxGeometry>
        </mxCell>
        <mxCell id="0UYNpmuhVcVU08-RjVgE-90" value="" style="endArrow=classic;html=1;rounded=0;dashed=1;dashPattern=1 4;" parent="1" edge="1">
          <mxGeometry width="50" height="50" relative="1" as="geometry">
            <mxPoint x="310.24" y="120" as="sourcePoint" />
            <mxPoint x="310" y="160" as="targetPoint" />
          </mxGeometry>
        </mxCell>
        <mxCell id="0UYNpmuhVcVU08-RjVgE-91" value="M&lt;sub&gt;i&lt;/sub&gt;" style="edgeLabel;html=1;align=center;verticalAlign=middle;resizable=0;points=[];" parent="0UYNpmuhVcVU08-RjVgE-90" vertex="1" connectable="0">
          <mxGeometry x="0.1905" y="-1" relative="1" as="geometry">
            <mxPoint x="1" y="-4" as="offset" />
          </mxGeometry>
        </mxCell>
        <mxCell id="0UYNpmuhVcVU08-RjVgE-92" value="" style="endArrow=none;html=1;rounded=0;dashed=1;dashPattern=1 4;" parent="1" edge="1">
          <mxGeometry width="50" height="50" relative="1" as="geometry">
            <mxPoint x="300" y="230" as="sourcePoint" />
            <mxPoint x="320" y="230" as="targetPoint" />
          </mxGeometry>
        </mxCell>
        <mxCell id="0UYNpmuhVcVU08-RjVgE-93" value="" style="endArrow=none;html=1;rounded=0;dashed=1;dashPattern=1 4;" parent="1" edge="1">
          <mxGeometry width="50" height="50" relative="1" as="geometry">
            <mxPoint x="300" y="169.9" as="sourcePoint" />
            <mxPoint x="320" y="169.9" as="targetPoint" />
          </mxGeometry>
        </mxCell>
        <mxCell id="iXRXFu9Eo07tDMIuw92Q-1" value="" style="endArrow=classic;html=1;rounded=0;" parent="1" edge="1">
          <mxGeometry width="50" height="50" relative="1" as="geometry">
            <mxPoint x="70" y="110" as="sourcePoint" />
            <mxPoint x="110" y="110" as="targetPoint" />
          </mxGeometry>
        </mxCell>
        <mxCell id="iXRXFu9Eo07tDMIuw92Q-2" value="M" style="edgeLabel;html=1;align=center;verticalAlign=middle;resizable=0;points=[];" parent="iXRXFu9Eo07tDMIuw92Q-1" vertex="1" connectable="0">
          <mxGeometry x="-0.79" y="1" relative="1" as="geometry">
            <mxPoint as="offset" />
          </mxGeometry>
        </mxCell>
        <mxCell id="iXRXFu9Eo07tDMIuw92Q-4" value="f" style="rounded=1;whiteSpace=wrap;html=1;fillColor=#fff2cc;strokeColor=#d6b656;" parent="1" vertex="1">
          <mxGeometry x="520" y="130" width="30" height="120" as="geometry" />
        </mxCell>
        <mxCell id="iXRXFu9Eo07tDMIuw92Q-5" value="trunc&lt;span style=&quot;font-size: 10px;&quot;&gt;&lt;sub&gt;d&lt;/sub&gt;&lt;/span&gt;" style="rounded=1;whiteSpace=wrap;html=1;fillColor=#dae8fc;strokeColor=#6c8ebf;" parent="1" vertex="1">
          <mxGeometry x="470" y="100" width="220" height="20" as="geometry" />
        </mxCell>
        <mxCell id="iXRXFu9Eo07tDMIuw92Q-6" value="" style="endArrow=classic;html=1;rounded=0;startArrow=dash;startFill=0;endFill=1;" parent="1" edge="1">
          <mxGeometry width="50" height="50" relative="1" as="geometry">
            <mxPoint x="480" y="229.66000000000008" as="sourcePoint" />
            <mxPoint x="520" y="229.66000000000008" as="targetPoint" />
          </mxGeometry>
        </mxCell>
        <mxCell id="iXRXFu9Eo07tDMIuw92Q-7" value="c" style="edgeLabel;html=1;align=center;verticalAlign=middle;resizable=0;points=[];labelBackgroundColor=none;" parent="iXRXFu9Eo07tDMIuw92Q-6" vertex="1" connectable="0">
          <mxGeometry x="-0.64" y="1" relative="1" as="geometry">
            <mxPoint x="-1" y="-9" as="offset" />
          </mxGeometry>
        </mxCell>
        <mxCell id="iXRXFu9Eo07tDMIuw92Q-8" value="" style="endArrow=none;html=1;rounded=0;" parent="1" edge="1">
          <mxGeometry width="50" height="50" relative="1" as="geometry">
            <mxPoint x="460" y="229.66000000000008" as="sourcePoint" />
            <mxPoint x="480" y="229.66000000000008" as="targetPoint" />
          </mxGeometry>
        </mxCell>
        <mxCell id="iXRXFu9Eo07tDMIuw92Q-16" value="" style="endArrow=none;html=1;rounded=0;" parent="1" edge="1">
          <mxGeometry width="50" height="50" relative="1" as="geometry">
            <mxPoint x="550" y="229.84" as="sourcePoint" />
            <mxPoint x="560" y="229.84" as="targetPoint" />
          </mxGeometry>
        </mxCell>
        <mxCell id="iXRXFu9Eo07tDMIuw92Q-17" value="" style="endArrow=classic;html=1;rounded=0;endFill=1;" parent="1" edge="1">
          <mxGeometry width="50" height="50" relative="1" as="geometry">
            <mxPoint x="600" y="229.81" as="sourcePoint" />
            <mxPoint x="610" y="229.81" as="targetPoint" />
          </mxGeometry>
        </mxCell>
        <mxCell id="iXRXFu9Eo07tDMIuw92Q-18" value="" style="endArrow=none;html=1;rounded=0;dashed=1;dashPattern=1 4;" parent="1" edge="1">
          <mxGeometry width="50" height="50" relative="1" as="geometry">
            <mxPoint x="570" y="229.91" as="sourcePoint" />
            <mxPoint x="590" y="229.91" as="targetPoint" />
          </mxGeometry>
        </mxCell>
        <mxCell id="iXRXFu9Eo07tDMIuw92Q-19" value="" style="endArrow=classic;html=1;rounded=0;startArrow=dash;startFill=0;endFill=1;" parent="1" edge="1">
          <mxGeometry width="50" height="50" relative="1" as="geometry">
            <mxPoint x="460" y="169.83" as="sourcePoint" />
            <mxPoint x="520" y="170" as="targetPoint" />
          </mxGeometry>
        </mxCell>
        <mxCell id="iXRXFu9Eo07tDMIuw92Q-20" value="&amp;nbsp; &amp;nbsp;r" style="edgeLabel;html=1;align=center;verticalAlign=middle;resizable=0;points=[];labelBackgroundColor=none;" parent="iXRXFu9Eo07tDMIuw92Q-19" vertex="1" connectable="0">
          <mxGeometry x="-0.64" y="1" relative="1" as="geometry">
            <mxPoint x="-11" y="-9" as="offset" />
          </mxGeometry>
        </mxCell>
        <mxCell id="iXRXFu9Eo07tDMIuw92Q-21" value="" style="endArrow=classic;html=1;rounded=0;startArrow=oval;startFill=1;" parent="1" edge="1">
          <mxGeometry width="50" height="50" relative="1" as="geometry">
            <mxPoint x="490" y="170" as="sourcePoint" />
            <mxPoint x="490.24" y="120" as="targetPoint" />
          </mxGeometry>
        </mxCell>
        <mxCell id="iXRXFu9Eo07tDMIuw92Q-32" value="Z&lt;sub&gt;1&lt;/sub&gt;" style="edgeLabel;html=1;align=center;verticalAlign=middle;resizable=0;points=[];" parent="iXRXFu9Eo07tDMIuw92Q-21" vertex="1" connectable="0">
          <mxGeometry x="0.0955" y="-1" relative="1" as="geometry">
            <mxPoint y="-2" as="offset" />
          </mxGeometry>
        </mxCell>
        <mxCell id="iXRXFu9Eo07tDMIuw92Q-22" value="f" style="rounded=1;whiteSpace=wrap;html=1;fillColor=#fff2cc;strokeColor=#d6b656;" parent="1" vertex="1">
          <mxGeometry x="610" y="130" width="30" height="120" as="geometry" />
        </mxCell>
        <mxCell id="iXRXFu9Eo07tDMIuw92Q-26" value="" style="endArrow=classic;html=1;rounded=0;startArrow=dash;startFill=0;endFill=1;" parent="1" edge="1">
          <mxGeometry width="50" height="50" relative="1" as="geometry">
            <mxPoint x="640" y="169.76000000000002" as="sourcePoint" />
            <mxPoint x="670" y="120" as="targetPoint" />
            <Array as="points">
              <mxPoint x="670" y="170" />
            </Array>
          </mxGeometry>
        </mxCell>
        <mxCell id="iXRXFu9Eo07tDMIuw92Q-27" value="r" style="edgeLabel;html=1;align=center;verticalAlign=middle;resizable=0;points=[];labelBackgroundColor=none;" parent="iXRXFu9Eo07tDMIuw92Q-26" vertex="1" connectable="0">
          <mxGeometry x="-0.64" y="1" relative="1" as="geometry">
            <mxPoint x="-1" y="-9" as="offset" />
          </mxGeometry>
        </mxCell>
        <mxCell id="iXRXFu9Eo07tDMIuw92Q-33" value="Z&lt;sub&gt;l&lt;/sub&gt;" style="edgeLabel;html=1;align=center;verticalAlign=middle;resizable=0;points=[];" parent="iXRXFu9Eo07tDMIuw92Q-26" vertex="1" connectable="0">
          <mxGeometry x="0.5298" y="1" relative="1" as="geometry">
            <mxPoint x="1" y="1" as="offset" />
          </mxGeometry>
        </mxCell>
        <mxCell id="iXRXFu9Eo07tDMIuw92Q-28" value="" style="endArrow=none;html=1;rounded=0;" parent="1" edge="1">
          <mxGeometry width="50" height="50" relative="1" as="geometry">
            <mxPoint x="550" y="169.87" as="sourcePoint" />
            <mxPoint x="560" y="169.87" as="targetPoint" />
          </mxGeometry>
        </mxCell>
        <mxCell id="iXRXFu9Eo07tDMIuw92Q-29" value="" style="endArrow=classic;html=1;rounded=0;endFill=1;" parent="1" edge="1">
          <mxGeometry width="50" height="50" relative="1" as="geometry">
            <mxPoint x="600" y="169.84" as="sourcePoint" />
            <mxPoint x="610" y="169.84" as="targetPoint" />
          </mxGeometry>
        </mxCell>
        <mxCell id="iXRXFu9Eo07tDMIuw92Q-30" value="" style="endArrow=none;html=1;rounded=0;dashed=1;dashPattern=1 4;" parent="1" edge="1">
          <mxGeometry width="50" height="50" relative="1" as="geometry">
            <mxPoint x="570" y="169.94" as="sourcePoint" />
            <mxPoint x="590" y="169.94" as="targetPoint" />
          </mxGeometry>
        </mxCell>
        <mxCell id="iXRXFu9Eo07tDMIuw92Q-35" value="" style="endArrow=classic;html=1;rounded=0;" parent="1" edge="1">
          <mxGeometry width="50" height="50" relative="1" as="geometry">
            <mxPoint x="690" y="110" as="sourcePoint" />
            <mxPoint x="710" y="110" as="targetPoint" />
          </mxGeometry>
        </mxCell>
        <mxCell id="iXRXFu9Eo07tDMIuw92Q-38" value="" style="endArrow=none;dashed=1;html=1;rounded=0;" parent="1" edge="1">
          <mxGeometry width="50" height="50" relative="1" as="geometry">
            <mxPoint x="110" y="250" as="sourcePoint" />
            <mxPoint x="110" y="130" as="targetPoint" />
          </mxGeometry>
        </mxCell>
        <mxCell id="iXRXFu9Eo07tDMIuw92Q-43" value="A&lt;sub&gt;0&lt;/sub&gt;" style="edgeLabel;html=1;align=center;verticalAlign=middle;resizable=0;points=[];" parent="iXRXFu9Eo07tDMIuw92Q-38" vertex="1" connectable="0">
          <mxGeometry x="-0.8232" y="1" relative="1" as="geometry">
            <mxPoint x="1" y="20" as="offset" />
          </mxGeometry>
        </mxCell>
        <mxCell id="iXRXFu9Eo07tDMIuw92Q-39" value="" style="endArrow=none;dashed=1;html=1;rounded=0;" parent="1" edge="1">
          <mxGeometry width="50" height="50" relative="1" as="geometry">
            <mxPoint x="200" y="250" as="sourcePoint" />
            <mxPoint x="200" y="130" as="targetPoint" />
          </mxGeometry>
        </mxCell>
        <mxCell id="iXRXFu9Eo07tDMIuw92Q-44" value="A&lt;sub&gt;1&lt;/sub&gt;" style="edgeLabel;html=1;align=center;verticalAlign=middle;resizable=0;points=[];" parent="iXRXFu9Eo07tDMIuw92Q-39" vertex="1" connectable="0">
          <mxGeometry x="-0.9105" y="1" relative="1" as="geometry">
            <mxPoint y="15" as="offset" />
          </mxGeometry>
        </mxCell>
        <mxCell id="iXRXFu9Eo07tDMIuw92Q-40" value="" style="endArrow=none;dashed=1;html=1;rounded=0;" parent="1" edge="1">
          <mxGeometry width="50" height="50" relative="1" as="geometry">
            <mxPoint x="380" y="250" as="sourcePoint" />
            <mxPoint x="380" y="130" as="targetPoint" />
          </mxGeometry>
        </mxCell>
        <mxCell id="iXRXFu9Eo07tDMIuw92Q-45" value="A&lt;sub&gt;m-1&lt;/sub&gt;" style="edgeLabel;html=1;align=center;verticalAlign=middle;resizable=0;points=[];" parent="iXRXFu9Eo07tDMIuw92Q-40" vertex="1" connectable="0">
          <mxGeometry x="-0.847" relative="1" as="geometry">
            <mxPoint y="19" as="offset" />
          </mxGeometry>
        </mxCell>
        <mxCell id="iXRXFu9Eo07tDMIuw92Q-41" value="" style="endArrow=none;dashed=1;html=1;rounded=0;" parent="1" edge="1">
          <mxGeometry width="50" height="50" relative="1" as="geometry">
            <mxPoint x="470" y="250" as="sourcePoint" />
            <mxPoint x="470" y="130" as="targetPoint" />
          </mxGeometry>
        </mxCell>
        <mxCell id="iXRXFu9Eo07tDMIuw92Q-46" value="A&lt;sub&gt;m&lt;/sub&gt;&lt;font size=&quot;1&quot;&gt;=B&lt;sub&gt;1&lt;/sub&gt;&lt;/font&gt;" style="edgeLabel;html=1;align=center;verticalAlign=middle;resizable=0;points=[];" parent="iXRXFu9Eo07tDMIuw92Q-41" vertex="1" connectable="0">
          <mxGeometry x="-0.8391" y="1" relative="1" as="geometry">
            <mxPoint x="1" y="20" as="offset" />
          </mxGeometry>
        </mxCell>
        <mxCell id="iXRXFu9Eo07tDMIuw92Q-42" value="" style="endArrow=none;dashed=1;html=1;rounded=0;" parent="1" edge="1">
          <mxGeometry width="50" height="50" relative="1" as="geometry">
            <mxPoint x="650" y="250" as="sourcePoint" />
            <mxPoint x="650" y="130" as="targetPoint" />
          </mxGeometry>
        </mxCell>
        <mxCell id="iXRXFu9Eo07tDMIuw92Q-47" value="B&lt;font size=&quot;1&quot;&gt;&lt;sub&gt;l&lt;/sub&gt;&lt;/font&gt;" style="edgeLabel;html=1;align=center;verticalAlign=middle;resizable=0;points=[];" parent="iXRXFu9Eo07tDMIuw92Q-42" vertex="1" connectable="0">
          <mxGeometry x="-0.7915" relative="1" as="geometry">
            <mxPoint y="22" as="offset" />
          </mxGeometry>
        </mxCell>
        <mxCell id="LheCFrHcs_QGVThzgwKI-1" value="" style="shape=curlyBracket;whiteSpace=wrap;html=1;rounded=1;flipH=1;labelPosition=right;verticalLabelPosition=middle;align=left;verticalAlign=middle;rotation=90;" vertex="1" parent="1">
          <mxGeometry x="265" y="85" width="20" height="390" as="geometry" />
        </mxCell>
        <mxCell id="LheCFrHcs_QGVThzgwKI-2" value="" style="shape=curlyBracket;whiteSpace=wrap;html=1;rounded=1;flipH=1;labelPosition=right;verticalLabelPosition=middle;align=left;verticalAlign=middle;rotation=90;" vertex="1" parent="1">
          <mxGeometry x="571.88" y="171.88" width="20" height="216.25" as="geometry" />
        </mxCell>
        <mxCell id="LheCFrHcs_QGVThzgwKI-3" value="absorbieren" style="text;html=1;strokeColor=none;fillColor=none;align=center;verticalAlign=middle;whiteSpace=wrap;rounded=0;" vertex="1" parent="1">
          <mxGeometry x="245" y="290" width="60" height="30" as="geometry" />
        </mxCell>
        <mxCell id="LheCFrHcs_QGVThzgwKI-4" value="ausquetschen" style="text;html=1;strokeColor=none;fillColor=none;align=center;verticalAlign=middle;whiteSpace=wrap;rounded=0;" vertex="1" parent="1">
          <mxGeometry x="551.88" y="290" width="60" height="30" as="geometry" />
        </mxCell>
        <mxCell id="LheCFrHcs_QGVThzgwKI-8" value="" style="endArrow=classic;html=1;rounded=0;startArrow=none;startFill=0;dashed=1;dashPattern=1 4;" edge="1" parent="1">
          <mxGeometry width="50" height="50" relative="1" as="geometry">
            <mxPoint x="579.8" y="170" as="sourcePoint" />
            <mxPoint x="580.04" y="120" as="targetPoint" />
          </mxGeometry>
        </mxCell>
        <mxCell id="LheCFrHcs_QGVThzgwKI-9" value="Z&lt;font size=&quot;1&quot;&gt;&lt;sub&gt;i&lt;/sub&gt;&lt;/font&gt;" style="edgeLabel;html=1;align=center;verticalAlign=middle;resizable=0;points=[];" vertex="1" connectable="0" parent="LheCFrHcs_QGVThzgwKI-8">
          <mxGeometry x="0.0955" y="-1" relative="1" as="geometry">
            <mxPoint x="-1" y="-2" as="offset" />
          </mxGeometry>
        </mxCell>
      </root>
    </mxGraphModel>
  </diagram>
</mxfile>
